<svg xmlns="http://www.w3.org/2000/svg" viewBox="0 0 20.2 22.9">
  <defs />
  <path
    fill="#99e9f2"
    stroke="#22b8cf"
    stroke-linecap="round"
    stroke-linejoin="round"
    stroke-width="1.1"
    d="M15.7-1.8c-2.5 0-2-1.4-4.2-2.7-2.2-1.2-3.2 0-4.4-2.2-1.3-2.2.2-2.5.2-5s-1.5-2.8-.2-5c1.2-2.1 2.2-1 4.4-2.2 2.1-1.3 1.7-2.7 4.2-2.7 2.4 0 2 1.4 4.1 2.7 2.2 1.2 3.2 0 4.5 2.2 1.2 2.2-.3 2.5-.3 5s1.5 2.8.3 5c-1.3 2.1-2.3 1-4.5 2.2-2.1 1.3-1.7 2.7-4.1 2.7z"
    transform="matrix(.93378 0 0 .93417 -4.5 22.4)"
  />
  <path
    fill="#e3fafc"
    stroke="#22b8cf"
    stroke-linecap="round"
    stroke-linejoin="round"
    stroke-width="1.1"
    d="M15.7-1.8c-4.3 0-2.2-3.7-4.3-7.4C9.2-13 4.9-13 7-16.7c2.1-3.7 4.3 0 8.6 0s6.4-3.7 8.6 0c2.1 3.8-2.2 3.8-4.3 7.5-2.2 3.7 0 7.4-4.3 7.4z"
    transform="matrix(-.89766 0 0 -.91425 24.2 .8)"
  />
  <g
    fill="#22b8cf"
    stroke="#22b8cf"
    stroke-linecap="round"
    stroke-linejoin="round"
    stroke-width="1.7"
    paint-order="stroke markers fill"
    transform="matrix(.84628 0 0 .84739 -3.1 21.3)"
  >
    <circle cx="15.7" cy="-23.2" r="1.2" />
    <circle cx="25.6" cy="-17.4" r="1.2" />
    <circle cx="25.6" cy="-5.9" r="1.2" />
    <circle cx="15.7" cy="-.2" r="1.2" />
    <circle cx="5.7" cy="-5.9" r="1.2" />
    <circle cx="5.7" cy="-17.4" r="1.2" />
  </g>
</svg>
